<?xml version="1.0" standalone="no"?>
<!DOCTYPE svg PUBLIC "-//W3C//DTD SVG 20010904//EN"
 "http://www.w3.org/TR/2001/REC-SVG-20010904/DTD/svg10.dtd">
<svg version="1.0" xmlns="http://www.w3.org/2000/svg"
 width="225.000000pt" height="225.000000pt" viewBox="0 0 225.000000 225.000000"
 preserveAspectRatio="xMidYMid meet">
<metadata>
Created by potrace 1.15, written by Peter Selinger 2001-2017
</metadata>
<g transform="translate(0.000000,225.000000) scale(0.100000,-0.100000)"
fill="#000000" stroke="none">
<path d="M1721 2168 c-7 -35 -15 -73 -18 -85 -4 -18 2 -25 34 -38 21 -9 52
-30 70 -47 l32 -31 -66 -73 -66 -73 -46 38 c-102 86 -222 147 -349 178 -105
26 -324 23 -427 -6 -102 -28 -205 -78 -285 -137 l-63 -46 -121 121 -121 121
-38 -25 c-38 -26 -45 -39 -27 -50 17 -10 2 -24 -60 -55 -73 -37 -125 -87 -134
-130 -13 -68 -3 -190 19 -218 2 -2 16 9 31 24 16 15 66 45 112 66 l83 39 -7
58 c-6 52 -4 60 19 86 l25 29 75 -67 76 -68 -50 -62 c-59 -72 -130 -214 -155
-307 -28 -102 -26 -350 3 -452 32 -110 65 -179 129 -271 l57 -80 -132 -126
c-73 -69 -132 -129 -131 -132 0 -4 16 -19 35 -34 l36 -27 130 126 130 126 67
-52 c76 -58 196 -118 292 -145 52 -14 100 -18 235 -18 164 1 173 2 265 33 93
31 206 92 278 152 l37 30 131 -131 131 -130 27 36 27 36 -59 67 c-33 37 -88
94 -121 127 -34 33 -61 63 -61 68 0 5 15 27 34 50 80 99 137 234 161 382 19
114 19 181 0 288 -25 142 -67 244 -148 360 l-41 58 75 75 74 75 56 -60 c33
-36 75 -98 103 -151 25 -50 46 -87 46 -83 0 5 -7 61 -15 126 -17 123 -32 179
-66 234 -20 31 -20 35 -5 52 15 16 13 20 -24 56 -37 36 -41 37 -57 23 -17 -15
-25 -11 -117 58 -54 41 -102 74 -106 74 -4 0 -13 -28 -19 -62z m-406 -147
c161 -39 287 -113 409 -241 121 -127 181 -233 216 -384 50 -218 26 -423 -71
-604 -120 -225 -304 -371 -554 -440 -95 -27 -336 -23 -438 6 -266 76 -502 301
-583 557 -69 218 -52 459 45 653 115 228 336 404 576 457 94 21 305 19 400 -4z"/>
<path d="M897 1922 c-25 -28 -21 -78 8 -107 28 -29 61 -32 93 -9 29 20 31 85
2 114 -26 26 -81 26 -103 2z"/>
<path d="M963 1725 c-121 -33 -235 -115 -313 -228 -112 -159 -128 -362 -44
-546 41 -89 159 -213 242 -255 71 -36 191 -66 262 -66 73 0 197 32 261 67 71
38 168 131 209 199 57 95 79 175 80 284 0 163 -42 270 -151 384 -120 126 -236
177 -404 175 -49 0 -114 -7 -142 -14z m321 -24 c168 -59 320 -229 355 -399 70
-335 -189 -656 -529 -656 -151 1 -264 47 -376 156 -116 112 -164 226 -164 388
1 162 44 265 158 377 126 122 239 166 407 159 55 -3 113 -13 149 -25z"/>
<path d="M1047 1623 c-4 -3 -7 -201 -7 -440 l0 -433 35 0 35 0 0 180 0 180 80
0 80 0 0 -165 0 -166 30 16 30 16 0 374 0 375 -23 15 c-62 40 -236 73 -260 48z
m181 -89 c21 -15 22 -21 22 -180 l0 -164 -65 0 -65 0 0 180 0 180 43 0 c23 0
53 -7 65 -16z"/>
<path d="M854 1566 c-28 -19 -70 -56 -92 -82 l-42 -47 0 -245 0 -246 53 -50
c99 -97 186 -140 201 -100 3 9 6 93 6 187 -1 132 -4 176 -15 191 -9 12 -11 26
-6 40 11 28 25 339 16 365 -10 33 -61 27 -121 -13z m50 -98 c3 -13 6 -62 6
-110 0 -98 -11 -118 -64 -118 -47 0 -56 15 -56 97 0 72 1 74 40 113 45 45 65
50 74 18z m-19 -323 c23 -22 25 -31 25 -123 0 -54 -3 -101 -6 -104 -10 -10
-67 11 -89 32 -16 17 -21 36 -23 104 -4 78 -2 85 19 100 32 22 46 20 74 -9z"/>
<path d="M1410 1187 l0 -321 30 29 30 29 0 266 0 266 -30 26 -30 26 0 -321z"/>
<path d="M1623 1681 c-55 -34 -56 -98 -3 -126 32 -16 54 -11 93 23 27 24 22
76 -9 101 -33 26 -41 26 -81 2z"/>
<path d="M1751 1254 c-42 -53 -13 -114 54 -114 41 0 85 36 85 70 0 33 -44 70
-84 70 -25 0 -40 -7 -55 -26z"/>
<path d="M422 927 c-12 -13 -22 -28 -22 -35 0 -17 33 -82 41 -82 4 0 35 12 67
28 l60 27 -20 43 c-19 40 -23 42 -62 42 -31 0 -48 -6 -64 -23z"/>
<path d="M1505 699 c-39 -35 -42 -47 -20 -90 25 -47 60 -55 107 -24 21 14 38
28 38 32 0 8 -79 113 -85 113 -2 0 -20 -14 -40 -31z"/>
<path d="M834 585 c-4 -8 -4 -24 -1 -35 3 -11 -1 -21 -9 -24 -8 -3 -14 -15
-14 -26 0 -15 12 -27 46 -41 25 -12 47 -19 49 -17 3 3 55 129 55 134 0 1 -14
7 -31 13 -45 16 -89 14 -95 -4z"/>
</g>
</svg>
